PathFileType	4	(X/Y/Z)	D:\TRACE\v60_Jaco2_6-2-23\BothDRS_Motion2_2-v60.trc
DataRate	CameraRate	NumFrames	NumMarkers	Units	OrigDataRate	OrigDataStartFrame	OrigNumFrames
100.00	100.00	      24	9	mm	100.00	938	      7500
Frame#	Time	front left toe			Front right toe			aft left toe			aft right toe			Arm			FL body			FR body			AL Body			AR Body			
		X1	Y1	Z1	X2	Y2	Z2	X3	Y3	Z3	X4	Y4	Z4	X5	Y5	Z5	X6	Y6	Z6	X7	Y7	Z7	X8	Y8	Z8	X9	Y9	Z9	

938	9.370	-69.30550	36.94228	-167.81242	377.08148	84.55704	-327.12042	57.57518	6.81077	327.53168	352.84918	-18.03322	430.64835	162.63493	1232.43518	-359.17313	51.35285	604.97131	-356.46317	210.73056	601.93018	-373.23645	145.72517	516.72253	580.73468	303.35242	509.06247	567.30865	
939	9.380	-69.73279	36.84958	-168.07735	378.48532	77.26743	-332.15195	59.19022	-1.00710	321.89050	351.89432	-17.48214	430.24115	159.60846	1233.77905	-363.18103	51.27689	605.63544	-361.37228	210.83669	603.19415	-378.08746	147.02831	515.53790	575.48199	304.44495	508.64944	562.71069	
940	9.390	-70.76797	36.77351	-168.70529	379.25003	70.97382	-337.18323	60.85303	-8.23966	316.67383	351.00800	-17.47617	429.71973	156.50131	1235.14648	-366.92975	51.43410	606.06244	-366.11005	210.87204	604.52759	-383.99356	148.14294	513.91028	570.58215	305.82968	507.97455	557.15265	
941	9.400	-71.85435	36.92877	-169.05118	379.97830	65.69166	-342.68182	59.33939	-7.90824	312.81680	350.49503	-17.12531	429.35724	152.87794	1236.31067	-370.41797	51.76891	606.26416	-371.47031	210.79433	605.14758	-388.21011	149.17839	512.82855	565.38885	306.97507	507.60400	551.64850	
942	9.410	-72.27393	36.69799	-169.46368	381.30731	60.25443	-348.48959	58.22082	-9.89724	312.89148	349.38809	-16.59528	428.78494	149.24731	1237.43018	-374.54221	51.68848	606.02356	-376.64532	210.85910	605.73022	-394.33673	150.69279	513.26691	559.63696	308.10498	508.18655	546.15399	
943	9.420	-73.10709	36.49243	-169.79198	382.18134	54.19454	-354.43454	56.75455	-7.56471	313.28253	348.49512	-15.69908	428.34537	146.06087	1238.59375	-379.18555	51.12110	605.76398	-381.93747	210.79068	605.20355	-399.43423	151.79555	514.35406	554.63013	309.53680	509.25894	540.64056	
944	9.430	-74.88112	36.78377	-170.56143	381.19003	50.09626	-356.81812	56.47324	-7.24633	315.05051	347.89557	-15.11700	427.64362	143.83400	1239.49487	-385.24762	50.75140	605.19843	-387.17087	209.96637	605.42847	-404.89941	152.70248	515.00995	549.05591	310.99979	510.50919	534.48718	
945	9.440	-75.53319	36.78419	-170.88966	381.14948	47.86467	-358.57333	55.32193	-7.02387	314.61316	346.67831	-14.17356	427.23260	142.40483	1238.92810	-393.11600	50.23635	606.45752	-392.11420	209.83722	608.15076	-409.96964	153.56779	514.57605	543.79724	309.83865	509.41617	526.61066	
946	9.450	-74.69207	38.36566	-173.75359	380.36703	46.99542	-357.57666	54.87253	-6.67446	312.75598	346.12625	-12.45255	424.72150	141.24902	1237.99756	-401.72903	49.98911	608.38239	-397.08566	209.21861	610.67090	-415.20029	154.46512	514.48969	538.51154	312.57312	511.18744	523.96179	
947	9.460	-69.81413	41.66010	-175.44920	379.10114	45.98558	-359.77704	54.82285	-6.02655	311.32697	344.69580	-8.74160	423.46216	139.93074	1237.41602	-409.42181	49.31487	609.97461	-401.72891	208.79584	612.32367	-419.98096	155.51202	515.04950	533.85168	313.83459	512.42303	518.64203	
948	9.470	-63.53038	47.83442	-175.56725	377.88391	45.07428	-360.56256	54.23979	-4.96499	311.50345	340.78464	-2.42141	424.26227	137.96321	1238.50818	-414.94183	48.49723	610.82092	-406.03088	208.05937	613.25189	-424.57138	155.92958	516.52386	529.07446	314.26617	513.91815	513.93842	
949	9.480	-60.62438	57.49103	-178.96811	377.17694	44.49767	-360.76306	53.31867	-4.30785	310.89441	339.83826	9.32969	418.96045	135.99445	1240.18530	-418.20911	47.83316	611.07629	-410.47366	206.64798	613.97528	-429.08426	156.10678	518.08441	525.14557	314.31268	515.52100	509.79102	
950	9.490	-60.58474	69.30254	-182.70230	375.64087	43.67664	-361.13666	52.34366	-3.79621	310.81992	338.70926	21.89919	415.64816	133.54375	1242.02979	-420.87341	47.18196	610.81488	-414.64590	206.16658	613.70288	-432.90265	155.72743	519.56110	520.92554	313.66611	517.27124	505.81635	
951	9.500	-64.14648	81.79086	-189.76433	374.60416	43.08484	-361.44287	50.86901	-3.40337	310.58881	340.84543	36.37955	407.77197	131.06287	1243.13806	-423.71924	46.66109	610.67584	-418.37625	205.66985	613.22723	-436.74377	155.12833	521.04749	517.54126	311.21927	516.83051	499.15646	
952	9.510	-68.83363	96.24416	-198.32619	373.40341	42.32176	-361.95697	49.79753	-3.08217	310.16754	342.95447	49.58653	399.41110	129.38422	1243.73914	-426.54492	46.53130	610.76483	-422.07104	205.04192	613.04675	-440.12845	154.10226	521.74542	513.58185	309.63702	517.26868	495.75180	
953	9.520	-72.56812	110.44907	-209.04599	372.58600	41.77147	-362.10117	48.66955	-2.74818	310.22684	345.82806	63.46888	387.14990	128.57899	1243.91443	-430.17578	45.62704	610.92798	-425.20847	204.61249	613.51617	-443.56760	152.83032	521.88983	510.53156	308.31158	517.95532	492.73642	
954	9.530	-76.15162	124.25021	-220.94223	371.15894	40.78379	-362.65747	47.25928	-2.42167	309.69260	348.18723	76.02589	373.42267	128.83846	1243.66101	-434.46899	44.39924	611.25818	-428.36917	203.80598	614.08820	-446.90326	151.40109	522.14697	507.50592	303.78961	517.42993	486.87314	
955	9.540	-77.31776	137.93501	-233.94693	370.52805	40.40619	-362.99643	45.95827	-2.28026	309.06720	349.88358	88.35321	358.31924	129.59355	1242.89673	-438.96249	43.55305	611.41058	-431.17114	202.07214	614.11249	-448.66321	149.55966	522.36285	504.60028	303.81274	517.15887	484.68066	
956	9.550	-78.11718	149.89507	-246.46397	369.03314	39.91296	-363.55099	44.48985	-2.03969	308.97260	349.38275	100.08456	344.62488	130.07875	1241.80957	-443.23676	42.19427	611.82935	-433.66592	200.74980	614.17377	-451.70621	148.07050	522.19153	502.24823	300.62674	517.92908	483.27124	
957	9.560	-79.91240	161.21498	-258.32654	368.04962	39.27890	-363.89484	43.47308	-1.63620	308.37286	347.63739	111.15920	331.99054	130.42766	1241.52637	-446.62497	40.35133	611.95728	-436.22162	200.10753	614.46588	-454.36865	146.13960	523.17603	499.60550	300.62668	517.68176	479.65903	
958	9.570	-82.49635	168.82324	-267.65988	366.78476	38.18685	-364.32214	42.00995	-0.94689	307.90152	344.48962	118.91235	322.28082	130.17520	1241.58948	-449.62466	38.93556	611.63831	-438.75067	197.78160	613.50549	-456.03885	144.55106	524.29303	497.18655	298.78317	518.62195	477.76974	
959	9.580	-85.71404	174.64746	-275.17551	365.57492	37.44046	-364.70114	40.85863	-0.39928	307.76025	340.68152	123.32092	313.41327	129.43236	1241.82520	-451.94064	37.57598	611.51740	-441.00906	197.04681	613.11761	-459.10342	142.64624	525.48566	495.26208	295.98203	520.16925	476.63120	
960	9.590	-89.55215	177.05870	-281.54114	364.48889	36.96207	-365.09668	39.45771	-0.14743	307.17722	340.24146	126.69293	306.23868	128.40565	1242.16125	-454.01453	36.45341	610.81976	-443.00198	195.88161	612.28595	-461.10712	140.83897	526.84344	493.45667	294.82620	520.86255	474.90311	
961	9.600	-93.08863	177.50902	-287.50528	363.13187	36.29325	-365.46115	38.39978	0.03295	306.83380	339.65973	126.65311	298.93079	127.20474	1241.66284	-456.18503	34.76923	610.26837	-445.00162	194.16376	611.25146	-462.94696	138.70229	528.01251	491.97177	292.66058	521.61908	473.35904	
